<svg xmlns="http://www.w3.org/2000/svg" viewBox="0 0 868.38 406.75"><defs><style>.cls-1{isolation:isolate;}.cls-2{mix-blend-mode:color;}.cls-3{stroke:#000;}.cls-3,.cls-4{stroke-miterlimit:10;stroke-width:6px;}.cls-4{fill:#fffefe;stroke:#3743c2;}.cls-5{fill:#ff1cb0;}</style></defs><g class="cls-1"><g id="Central_Text" data-name="Central Text"><g class="cls-2"><path class="cls-3" d="M294.6,574.9c-.6,0-1.8-4.8-2.1-6-3.9-16.5-22.5-45.3-32.1-51.3a15.37,15.37,0,0,0-8.1-2.7c-2.1,0-2.4.9-3.3,7.5a74.31,74.31,0,0,0-.6,8.7c0,25.2,14.4,70.2,28.2,81.9a25.18,25.18,0,0,0,16.2,5.7c7.2,0,10.8-2.7,15-11.4,2.4-4.8,6.3-11.4,9.3-14.7l5.7-6-1.2,6.3c-2.1,13.5-16.8,37.8-27.6,45.3a30,30,0,0,1-17.1,5.1,26.73,26.73,0,0,1-20.4-9c-12.3-14.1-24.9-54.3-24.9-81.9,0-18,5.4-33.6,17.1-49.5,7.2-9.3,12.6-13.5,17.7-13.5,9.6,0,21.9,14.7,27,21.9,1.5,2.4,1.5,2.7,2.1.9A73.61,73.61,0,0,1,306.9,490c3.3-4.8,6-6.9,7.2-6.9.3,0,.6.3.6,1.2a17.41,17.41,0,0,1-.9,3.9c-3.3,9.9-5.7,28.2-5.7,39.6,0,9.6,1.8,15.9,1.8,19.5C309.9,557.5,296.1,574.9,294.6,574.9Zm21.9-15c-1.8,0-3-9.9-3-15.6,0-17.1,10.2-45.3,15.3-51.9.9-1.2,3-3.3,3.9-3.3.3,0,.6.3.6,1.2a7.55,7.55,0,0,1-.6,1.8c-2.7,8.7-4.5,22.8-4.5,31.5,0,7.2,1.2,12.3,1.2,15C329.4,546.4,318.9,559.9,316.5,559.9Z" transform="translate(-73.21 -304.44)"/><path class="cls-3" d="M346.5,523.6c-5.4,0-14.7,2.4-14.7,7.8a18.21,18.21,0,0,0,1.8,6.6c5.1,12,16.2,20.4,36.3,27,5.1,1.8,11.4,4.2,11.4,9,0,5.4-8.4,17.7-24.6,33.6-4.8,4.8-9.6,9.9-9.6,10.8,0,0,11.1-3,13.8-3.9,15.3-3.9,21.9-4.5,37.5-4.5h19.5l-2.4-7.2c-1.8-6-5.7-21.3-5.7-29.4,0-6.9,2.7-10.8,6.3-15.9,6.3-8.7,8.1-10.8,9.3-10.8.9,0,1.5,1.5,1.5,4.2,0,7.5,4.5,25.8,13.5,50.7,1.5,4.2,3.6,10.2,3.6,14.4s-2.1,7.5-8.1,18c-2.4,3.9-4.2,6.9-7.8,6.9a19.63,19.63,0,0,1-5.4-1.2c-9.9-3-28.8-5.1-42.3-5.1-20.1,0-37.5,4.8-56.1,12.6-6.3,2.7-12,4.8-13.2,4.8a.29.29,0,0,1-.3-.3c0-3.9,9.9-19.8,18-29.1,3.9-4.5,12.6-13.5,18.9-19.5l11.7-10.8-6-1.8C330.3,583,315,567.7,315,555.1c0-10.8,10.8-30.9,21.3-42.9,8.4-9.3,17.1-14.1,25.2-14.1,2.1,0,4.8.3,6.3.3,2.7,0,3.3-.9,3.9-2.7,3-8.4,16.8-31.2,22.2-36.9,1.5-1.5,4.2-3.6,4.2-2.4s-2.7,7.5-8.4,18.9c-5.7,10.8-6.6,13.5-6.6,24.9s.9,15.9,2.1,20.1l2.1,7.8-5.4,9c-5.7,9.3-9.3,13.8-10.5,13.8-2.1,0-4.8-16.8-7.2-16.8-.9,0-2.4,2.7-2.4,0C361.8,527.5,353.4,523.6,346.5,523.6Z" transform="translate(-73.21 -304.44)"/><path class="cls-3" d="M437.4,515.2c1.5,0,4.5,4.5,8.1,12.3,3,7.2,4.5,8.7,11.69,13.5,1.5,1.2,63,46.2,63,46.2,0-2.4-11.7-39.9-22.2-72.9l-5.4-17.1,3.6-5.7c1.5-3,9-15.9,12.3-15.9,1.8,0,5.4,11.1,10.2,27.6,8.4,27.3,17.7,55.8,24.3,75l12,35.1-3.6,6.3c-5.7,10.5-9.3,15-13.2,16.8-6.9,0-66.9-49.8-68.1-49.8v.3c0,3,14.1,43.8,14.1,47.7,0,2.7-7.5,15.3-12.6,21l-3,3.3-8.1-23.7c-10.2-30-26.1-71.7-29.1-75-2.1-2.7-23.11-14.4-23.11-16.8,0-.9,3-6.3,9-15,3-4.5,4.2-6,11.7-6C429.6,522.4,436.19,515.2,437.4,515.2Z" transform="translate(-73.21 -304.44)"/><path class="cls-3" d="M524.39,488.2c.3,0,7.5,2.1,11.1,3.3,27.9,8.1,44.4,11.4,68.71,11.4,19.2,0,42.6-2.1,59.4-5.7a49.35,49.35,0,0,1,5.4-.9.8.8,0,0,1,.9.9c0,2.7-7.5,14.4-11.7,19.5-3.3,3.9-5.7,5.1-13.2,6.6a319.22,319.22,0,0,1-36.6,4.2c-6,.3-13.81.9-13.81,1.2s3.91,12.6,9,27c9.61,27.9,20.41,54.9,25.81,66,2.7,5.4,3.9,9,3.9,10.5,0,5.4-13.51,22.8-15.3,22.8-2.71,0-17.71-36-47.71-122.4-1.79-5.7-2.1-6.6-6.6-6.6h-.6c-5.4,0-27.9-5.1-40.8-9-8.7-2.4-12.6-4.2-12.6-6,0-2.1,4.5-9.9,9.6-16.8C522,490.6,524.09,488.2,524.39,488.2Z" transform="translate(-73.21 -304.44)"/><path class="cls-3" d="M631.19,502.3c0-2.4-1.8-5.1-3.6-8.1-6.6-9.9-11.4-18-13.5-21.6l-3.6-6.6,3.6-6.3c2.1-3.6,5.4-8.7,6.9-10.8,2.4-3.3,4.8-5.1,5.4-5.1,1.2,0,5.7,6.6,10.8,15,9.6,16.2,16.2,23.7,39.3,42.3a387.85,387.85,0,0,1,31.2,27.6c13.5,13.2,18,18.3,18,23.4,0,7.5-9,20.1-10.8,22.5-3,3.6-6.6,4.5-11.1,5.1,15.3,12.9,42.3,35.1,60.3,52.2l9.6,9,2.7-3.9c1.8-2.4,4.5-5.4,6-7.5l2.7-3.6,6.9,13.8c3.9,7.5,11.4,20.4,16.8,28.5l9.9,15-3.9,7.2a83.07,83.07,0,0,1-8.1,12l-3.9,4.5-30.3-27.6c-15.9-14.7-70.8-65.1-95.7-89.1,4.5,9.9,11.1,23.4,12.3,27.3l3.9,11.1-3,6c-4.8,9.6-8.1,13.8-11.1,13.8-4.8,0-8.1-12-13.5-28.8-10.2-31.2-18.9-64.2-31.2-97.2-2.7-7.2-4.2-11.7-4.2-14.4C630,505.6,631.19,504.1,631.19,502.3Zm30,24.9c0,.3,2.4,8.1,3.9,12.9,6.9,22.8,6,21.9,22.8,23.4a85.59,85.59,0,0,0,9,.9c2.7,0,3.9-.6,3.9-1.2,0-.9-4.5-5.7-9.9-10.8C680.69,542.8,662.09,527.2,661.19,527.2Z" transform="translate(-73.21 -304.44)"/><path class="cls-3" d="M757.79,536.2c0-4.8-4.8-16.5-6.9-20.1a7.15,7.15,0,0,1-1.2-3.6c0-1.8.9-3.6,1.8-5.4a133.56,133.56,0,0,1,9-13.2c2.4-2.7,3.6-3.6,5.1-3.6,1.8,0,3,1.5,3.9,4.2,1.5,4.5,2.4,1.5,4.2,1.5,2.1,0,2.7,3.6,2.7,7.8,0,14.4,7.2,31.5,30.9,80.7l15,30.9-3.9,7.8a69.69,69.69,0,0,1-7.5,12l-3.6,4.2-12.6-10.8c-11.7-10.2-36.3-26.1-39.3-26.1-1.5,0-3.9,3.6-5.7,8.1-3.9,8.7-13.2,22.2-15.3,22.2a1.31,1.31,0,0,1-.3-.9c0-1.2,1.2-5.7,3-11.4,3-9,5.7-15.3,5.7-20.1,0-3.6-1.5-4.2-2.7-4.8-23.4-9.3-36.3-12.9-52.2-14.1-3.9-.3-9.9-.9-9.9-1.8s6.3-11.7,10.5-17.7l5.1-6.9,11.7.9c7.5.6,18.3,3,30.9,7.2,6.3,2.1,13.5,4.2,14.1,4.2C752.39,567.4,757.79,541,757.79,536.2Zm13.8,31.5-5.1-11.1-1.8,6.3c-1.2,3.6-1.8,5.7-1.8,7.5,0,3,1.8,4.5,7.5,6.9,2.4.9,5.7,2.1,5.7,1.5A86.79,86.79,0,0,0,771.59,567.7Z" transform="translate(-73.21 -304.44)"/><path class="cls-3" d="M797.39,639.7c0-3.9,9.9-19.8,17.4-28.5,3.6-4.2,10.2-10.8,15.9-16.5l-10.5-36.3c-2.4-9.9-4.2-18-4.8-18s-3.6,5.7-4.8,8.1c-8.7,16.8-17.4,28.2-19.2,28.2a.29.29,0,0,1-.3-.3c0-2.4,2.1-8.4,6-17.1,7.5-16.5,10.8-28.8,10.8-44.4,0-6.6.6-8.4,4.2-14.1,6.6-9.9,11.7-15,12.9-15,2.1,0,4.5,12.6,7.2,26.4,3.3,15.3,7.2,33,9,39.9l7.2,26.1-3,15.3c-6.9,6.9-11.7,12-11.7,12.9,0,0,11.1-3,13.8-3.9,15.3-3.9,21.9-4.5,37.5-4.5h19.5l-2.4-7.2c-1.8-6-5.7-21.3-5.7-29.4,0-6.9,2.7-10.8,5.7-14.7,6.9-9.9,9-12,10.2-12,.9,0,1.5,1.5,1.5,4.2,0,7.5,4.2,25.8,13.2,50.7,1.5,4.2,3.6,10.2,3.6,15,0,3.9-1.5,6.9-6,14.4-4.2,6.9-6.3,9.9-9.9,9.9a19.63,19.63,0,0,1-5.4-1.2c-9.9-3-28.8-5.1-42.3-5.1-20.1,0-37.2,4.8-54.6,12.3-7.5,3-13.5,5.1-14.7,5.1A.29.29,0,0,1,797.39,639.7Z" transform="translate(-73.21 -304.44)"/></g><path class="cls-4" d="M302.6,559.9c-.6,0-1.8-4.8-2.1-6-3.9-16.5-22.5-45.3-32.1-51.3a15.37,15.37,0,0,0-8.1-2.7c-2.1,0-2.4.9-3.3,7.5a74.31,74.31,0,0,0-.6,8.7c0,25.2,14.4,70.2,28.2,81.9a25.18,25.18,0,0,0,16.2,5.7c7.2,0,10.8-2.7,15-11.4,2.4-4.8,6.3-11.4,9.3-14.7l5.7-6-1.2,6.3c-2.1,13.5-16.8,37.8-27.6,45.3a30,30,0,0,1-17.1,5.1,26.73,26.73,0,0,1-20.4-9c-12.3-14.1-24.9-54.3-24.9-81.9,0-18,5.4-33.6,17.1-49.5,7.2-9.3,12.6-13.5,17.7-13.5,9.6,0,21.9,14.7,27,21.9,1.5,2.4,1.5,2.7,2.1.9A73.61,73.61,0,0,1,314.9,475c3.3-4.8,6-6.9,7.2-6.9.3,0,.6.3.6,1.2a17.41,17.41,0,0,1-.9,3.9c-3.3,9.9-5.7,28.2-5.7,39.6,0,9.6,1.8,15.9,1.8,19.5C317.9,542.5,304.1,559.9,302.6,559.9Zm21.9-15c-1.8,0-3-9.9-3-15.6,0-17.1,10.2-45.3,15.3-51.9.9-1.2,3-3.3,3.9-3.3.3,0,.6.3.6,1.2a7.55,7.55,0,0,1-.6,1.8c-2.7,8.7-4.5,22.8-4.5,31.5,0,7.2,1.2,12.3,1.2,15C337.4,531.4,326.9,544.9,324.5,544.9Z" transform="translate(-73.21 -304.44)"/><path class="cls-4" d="M354.5,508.6c-5.4,0-14.7,2.4-14.7,7.8a18.21,18.21,0,0,0,1.8,6.6c5.1,12,16.2,20.4,36.3,27,5.1,1.8,11.4,4.2,11.4,9,0,5.4-8.4,17.7-24.6,33.6-4.8,4.8-9.6,9.9-9.6,10.8,0,0,11.1-3,13.8-3.9,15.3-3.9,21.9-4.5,37.5-4.5h19.5l-2.4-7.2c-1.8-6-5.7-21.3-5.7-29.4,0-6.9,2.7-10.8,6.3-15.9,6.3-8.7,8.1-10.8,9.3-10.8.9,0,1.5,1.5,1.5,4.2,0,7.5,4.5,25.8,13.5,50.7,1.5,4.2,3.6,10.2,3.6,14.4s-2.1,7.5-8.1,18c-2.4,3.9-4.2,6.9-7.8,6.9a19.63,19.63,0,0,1-5.4-1.2c-9.9-3-28.8-5.1-42.3-5.1-20.1,0-37.5,4.8-56.1,12.6-6.3,2.7-12,4.8-13.2,4.8a.29.29,0,0,1-.3-.3c0-3.9,9.9-19.8,18-29.1,3.9-4.5,12.6-13.5,18.9-19.5l11.7-10.8-6-1.8C338.3,568,323,552.7,323,540.1c0-10.8,10.8-30.9,21.3-42.9,8.4-9.3,17.1-14.1,25.2-14.1,2.1,0,4.8.3,6.3.3,2.7,0,3.3-.9,3.9-2.7,3-8.4,16.8-31.2,22.2-36.9,1.5-1.5,4.2-3.6,4.2-2.4s-2.7,7.5-8.4,18.9c-5.7,10.8-6.6,13.5-6.6,24.9s.9,15.9,2.1,20.1l2.1,7.8-5.4,9c-5.7,9.3-9.3,13.8-10.5,13.8-2.1,0-4.8-16.8-7.2-16.8-.9,0-2.4,2.7-2.4,0C369.8,512.5,361.4,508.6,354.5,508.6Z" transform="translate(-73.21 -304.44)"/><path class="cls-4" d="M445.4,500.2c1.5,0,4.5,4.5,8.1,12.3,3,7.2,4.5,8.7,11.69,13.5,1.5,1.2,63,46.2,63,46.2,0-2.4-11.7-39.9-22.2-72.9l-5.4-17.1,3.6-5.7c1.5-3,9-15.9,12.3-15.9,1.79,0,5.4,11.1,10.2,27.6,8.4,27.3,17.7,55.8,24.3,75l12,35.1-3.6,6.3c-5.7,10.5-9.3,15-13.2,16.8-6.9,0-66.9-49.8-68.1-49.8v.3c0,3,14.1,43.8,14.1,47.7,0,2.7-7.5,15.3-12.6,21l-3,3.3-8.1-23.7c-10.2-30-26.1-71.7-29.1-75-2.1-2.7-23.11-14.4-23.11-16.8,0-.9,3-6.3,9-15,3-4.5,4.2-6,11.7-6C437.6,507.4,444.19,500.2,445.4,500.2Z" transform="translate(-73.21 -304.44)"/><path class="cls-4" d="M532.39,473.2c.3,0,7.5,2.1,11.1,3.3,27.9,8.1,44.4,11.4,68.71,11.4,19.2,0,42.6-2.1,59.4-5.7a49.35,49.35,0,0,1,5.4-.9.8.8,0,0,1,.9.9c0,2.7-7.5,14.4-11.7,19.5-3.3,3.9-5.7,5.1-13.2,6.6a319.22,319.22,0,0,1-36.6,4.2c-6,.3-13.81.9-13.81,1.2s3.91,12.6,9,27c9.61,27.9,20.41,54.9,25.81,66,2.7,5.4,3.9,9,3.9,10.5,0,5.4-13.51,22.8-15.3,22.8-2.71,0-17.71-36-47.71-122.4-1.79-5.7-2.1-6.6-6.6-6.6h-.6c-5.4,0-27.9-5.1-40.8-9-8.7-2.4-12.6-4.2-12.6-6,0-2.1,4.5-9.9,9.6-16.8C530,475.6,532.09,473.2,532.39,473.2Z" transform="translate(-73.21 -304.44)"/><path class="cls-4" d="M639.19,487.3c0-2.4-1.8-5.1-3.6-8.1-6.6-9.9-11.4-18-13.5-21.6l-3.6-6.6,3.6-6.3c2.1-3.6,5.4-8.7,6.9-10.8,2.4-3.3,4.8-5.1,5.4-5.1,1.2,0,5.7,6.6,10.8,15,9.6,16.2,16.2,23.7,39.3,42.3a387.85,387.85,0,0,1,31.2,27.6c13.5,13.2,18,18.3,18,23.4,0,7.5-9,20.1-10.8,22.5-3,3.6-6.6,4.5-11.1,5.1,15.3,12.9,42.3,35.1,60.3,52.2l9.6,9,2.7-3.9c1.8-2.4,4.5-5.4,6-7.5l2.7-3.6,6.9,13.8c3.9,7.5,11.4,20.4,16.8,28.5l9.9,15-3.9,7.2a83.07,83.07,0,0,1-8.1,12l-3.9,4.5-30.3-27.6c-15.9-14.7-70.8-65.1-95.7-89.1,4.5,9.9,11.1,23.4,12.3,27.3l3.9,11.1-3,6c-4.8,9.6-8.1,13.8-11.1,13.8-4.8,0-8.1-12-13.5-28.8-10.2-31.2-18.9-64.2-31.2-97.2-2.7-7.2-4.2-11.7-4.2-14.4C638,490.6,639.19,489.1,639.19,487.3Zm30,24.9c0,.3,2.4,8.1,3.9,12.9,6.9,22.8,6,21.9,22.8,23.4a85.59,85.59,0,0,0,9,.9c2.7,0,3.9-.6,3.9-1.2,0-.9-4.5-5.7-9.9-10.8C688.69,527.8,670.09,512.2,669.19,512.2Z" transform="translate(-73.21 -304.44)"/><path class="cls-4" d="M765.79,521.2c0-4.8-4.8-16.5-6.9-20.1a7.15,7.15,0,0,1-1.2-3.6c0-1.8.9-3.6,1.8-5.4a133.56,133.56,0,0,1,9-13.2c2.4-2.7,3.6-3.6,5.1-3.6,1.8,0,3,1.5,3.9,4.2,1.5,4.5,2.4,1.5,4.2,1.5,2.1,0,2.7,3.6,2.7,7.8,0,14.4,7.2,31.5,30.9,80.7l15,30.9-3.9,7.8a69.69,69.69,0,0,1-7.5,12l-3.6,4.2-12.6-10.8c-11.7-10.2-36.3-26.1-39.3-26.1-1.5,0-3.9,3.6-5.7,8.1-3.9,8.7-13.2,22.2-15.3,22.2a1.31,1.31,0,0,1-.3-.9c0-1.2,1.2-5.7,3-11.4,3-9,5.7-15.3,5.7-20.1,0-3.6-1.5-4.2-2.7-4.8-23.4-9.3-36.3-12.9-52.2-14.1-3.9-.3-9.9-.9-9.9-1.8s6.3-11.7,10.5-17.7l5.1-6.9,11.7.9c7.5.6,18.3,3,30.9,7.2,6.3,2.1,13.5,4.2,14.1,4.2C760.39,552.4,765.79,526,765.79,521.2Zm13.8,31.5-5.1-11.1-1.8,6.3c-1.2,3.6-1.8,5.7-1.8,7.5,0,3,1.8,4.5,7.5,6.9,2.4.9,5.7,2.1,5.7,1.5A86.79,86.79,0,0,0,779.59,552.7Z" transform="translate(-73.21 -304.44)"/><path class="cls-4" d="M805.39,624.7c0-3.9,9.9-19.8,17.4-28.5,3.6-4.2,10.2-10.8,15.9-16.5l-10.5-36.3c-2.4-9.9-4.2-18-4.8-18s-3.6,5.7-4.8,8.1c-8.7,16.8-17.4,28.2-19.2,28.2a.29.29,0,0,1-.3-.3c0-2.4,2.1-8.4,6-17.1,7.5-16.5,10.8-28.8,10.8-44.4,0-6.6.6-8.4,4.2-14.1,6.6-9.9,11.7-15,12.9-15,2.1,0,4.5,12.6,7.2,26.4,3.3,15.3,7.2,33,9,39.9l7.2,26.1-3,15.3c-6.9,6.9-11.7,12-11.7,12.9,0,0,11.1-3,13.8-3.9,15.3-3.9,21.9-4.5,37.5-4.5h19.5l-2.4-7.2c-1.8-6-5.7-21.3-5.7-29.4,0-6.9,2.7-10.8,5.7-14.7,6.9-9.9,9-12,10.2-12,.9,0,1.5,1.5,1.5,4.2,0,7.5,4.2,25.8,13.2,50.7,1.5,4.2,3.6,10.2,3.6,15,0,3.9-1.5,6.9-6,14.4-4.2,6.9-6.3,9.9-9.9,9.9a19.63,19.63,0,0,1-5.4-1.2c-9.9-3-28.8-5.1-42.3-5.1-20.1,0-37.2,4.8-54.6,12.3-7.5,3-13.5,5.1-14.7,5.1A.29.29,0,0,1,805.39,624.7Z" transform="translate(-73.21 -304.44)"/></g><g id="FNF_Text" data-name="FNF Text"><path class="cls-5" d="M117.87,382.92c24.39.39,48-5,48-5l18.58-10.84,3.1,4.64L183.29,388l-10.45,14.32-1.94,5.42,3.87,5.81.78,10.06,1.63,7.21,8,9.44,9.68,10.45,8.52,10.84-3.1,12.77H155.81l-25.52-2.17,10-20.28-15.87-12.38-11.65,2.05V420.66L98.9,409.24l-11.35-6.83,10.19-13.3,20.13-6.19h0" transform="translate(-73.21 -304.44)"/><path class="cls-5" d="M220.24,357.76l12.6,11.61,5-2.32L263,388,253,352l4.64-7,25.16,6.58,6.81,5.79L281.71,373l10.35,12.21,12.78,7.36,8.9,7v14.71l-4.64,17.81-3.49,15.48-9.68,7.75-15.48-12.39-9.36-3.1-10.38,5-10.45,10.49-8.91,5.8H226.26l-18.2-12L201.48,436l5-12s3.09-13.16,1.54-13.16-12,1.16-12,1.16l-13.54-2.32v-6.58l9.29-13.55,13.93-19.35,9.68-9.68,4.82-2.71" transform="translate(-73.21 -304.44)"/><polyline class="cls-5" points="237.44 30.09 252.92 20.42 261.44 22.35 285.82 20.42 307.89 12.67 326.86 4.54 326.86 19.64 317.56 38.22 312.92 45.19 320.27 52.93 315.24 62.61 324.14 75.77 334.21 86.22 347.79 103.4 340.79 116.22 310.98 116.22 285.05 114.48 271.53 105.72 280.02 93.96 281.95 81.96 267.24 76.16 255.24 85.83 248.73 78.87 255.63 62.61 251.37 47.13 229.69 40.55 237.44 30.09"/><path d="M191.44,366A41.72,41.72,0,0,1,190,376.43a96.3,96.3,0,0,1-4.32,12.82c-.85,1.87-1.8,3.8-2.87,5.77a41.78,41.78,0,0,1-3.52,5.51L175,407.91q6.66,4.88,8.08,10.15a3,3,0,0,1-.23,2.38,3.17,3.17,0,0,1-.84.66l-3.66,6.34c1,1.1,2,2.24,3.17,3.43s2.44,2.56,3.92,4.1l.62.7c.83.94,1.68,1.87,2.56,2.79s1.84,1.92,2.9,3q15.78,16.65,17.15,21.79,1.85,6.9-2,9.95l-8.58,15.05a7.44,7.44,0,0,1-4.77,3.31,64.47,64.47,0,0,1-10.15,1.05q-7.86.43-21.4.73t-21.1.22c-4.95-.07-8-.34-9.2-.79a32.41,32.41,0,0,1-3.75-1.54c-1.65-.76-3.59-1.67-5.8-2.72l-.86-.78a7.61,7.61,0,0,1-.94-1.06c-.39-.37-.93-.88-1.63-1.51s-1.51-1.36-2.4-2.19a5.91,5.91,0,0,1,.36-4.59l9.11-15.77a5.64,5.64,0,0,1,2.73-3.34,3,3,0,0,1,.77-.36,4.13,4.13,0,0,0,.91-.38,19.73,19.73,0,0,0-5.18-5.28l-3.24.87q-4.74,1.26-12.47,8.12l-2.66,2.23a13.15,13.15,0,0,1-2.13,1.52l-1.68,2.91-3.52.94a14.8,14.8,0,0,1-2.79-4.47,28.94,28.94,0,0,1-.64-2.94,8,8,0,0,1-.06-2.37c.21-1,.57-2.45,1.1-4.28s1.24-4.13,2.14-6.88a47.74,47.74,0,0,1,3.74-7.67l5.45-9.43a36.46,36.46,0,0,0-7.47-4.89,41.66,41.66,0,0,0-9-3.16,36.18,36.18,0,0,0-7.19-.61A63.58,63.58,0,0,0,75,424l-.11-.41a2.07,2.07,0,0,0-.49-.74,4.38,4.38,0,0,1-.52-.87,6.4,6.4,0,0,1-.39-.91,7.63,7.63,0,0,1,1.12-6.1L83,400.52Q84.47,394,97.37,386q10.22-6.21,15.36-7.59c1.56.06,3.16.16,4.79.31a32,32,0,0,1,4.46.68,60.44,60.44,0,0,0,15.46.36A117.13,117.13,0,0,0,157.89,376q4.88-1.31,13.4-6.78t14.35-7c1.62-.43,3.43.53,5.41,2.9Zm-7.18,5.11q-17.89,10.6-30.87,14.07L146.63,387q-6.76,1.82-20.76.42t-11.83-2q-10.42,2.79-21.61,13.47,8.19-1.33,18.13,3.84,5.2,2.66,15.63,10.74,1.09.87,4.14,5.7c.35.58-.92,1.46-3.8,2.61q-7.45,3-7.69,3.22-1.91,1.53-4.21,8.09a25.75,25.75,0,0,0-1.79,8.45,75.19,75.19,0,0,1,7.18-5.11q8.4-5.45,11-6.13,6.36-1.71,12.86,7.42a45.11,45.11,0,0,1,7,14.66q2.33,8.65-5.93,10.86a10.37,10.37,0,0,1-3.55,0,10.93,10.93,0,0,0-3.55,0c-1.44.39-2.09.85-1.94,1.39s1.46,1.49,4,2.86q8.4,2.67,49.25,2.6a30.47,30.47,0,0,0,7.83-1.08c3.52-.95,5.23-2.28,5.16-4Q191.95,450,160,421.06c.26-.84,1.31-1.41,3.17-1.71.92-.15,2.21-.4,3.85-.75q3.84-.3,7.9-.81a1,1,0,0,0,.29-1.09q.1.41-3.43-4.15a9.66,9.66,0,0,0-7.09-1.3q-3.78.74-11.41,2.05c-1.22.13-1.56.13-1,0q-2.16.59-11-5.76L135,403a7.94,7.94,0,0,1-2.08-2.35c.35-.86.95-2.23,1.8-4.1l12.81-1.41q10-1.08,11.31,1.61-1.63,3.63-1.1,5.66l.51,1.89a8.57,8.57,0,0,0,5.37.59,16.23,16.23,0,0,0,2.43-.94,17.93,17.93,0,0,1,2.43-.94c.55-.15,1.87-1.23,4-3.24a34.83,34.83,0,0,0,3.9-4.09q2.1-3,5.3-12.15Q184.85,373.82,184.26,371.07Z" transform="translate(-73.21 -304.44)"/><path d="M202.59,423.27a.13.13,0,0,1-.17-.1,21.45,21.45,0,0,1-3.73,2.3,83,83,0,0,1-8.39,3.85,63.52,63.52,0,0,1-13.08,1.47q-11.64.38-12.88-4.23a4.8,4.8,0,0,1,.79-3.55L174,407.89q.83-3.4,6.57-9,3.72-3.45,6.23-6.23a28.27,28.27,0,0,0,3.31-4.15,75.92,75.92,0,0,0,5.41-7.39q3.41-5.12,8.47-13.29,7-11.6,11.64-12.83,7.83-2.1,16.29,7.81a3.8,3.8,0,0,1,2.15-1.73,11.6,11.6,0,0,1,8.67,1l7.43-12.86q2.19-7,6.52-8.13,1.75-.46,12.44,2.61c3.86,1.09,7.39,2.15,10.56,3.19a56.4,56.4,0,0,1,7.78,3.06q1.07.72,5.82,10.9a7.83,7.83,0,0,1-2.22,3.06l-5.55,9.6a74.5,74.5,0,0,0,13.95,12.57,171.62,171.62,0,0,0,20.74,12.49c-.36,4.44-.8,8.65-1.33,12.6s-1,7.41-1.51,10.34c-.52,3.13-1.11,6.22-1.8,9.25s-1.48,5.93-2.38,8.68q-2.82,8.43-6.28,12.26l-7.82,13.55q-2.88,5-6.26,5.88-4.32,1.15-19.45-9.86c-.73-.58-1.72-1.28-3-2.11s-2.69-1.84-4.36-3l0-.14c-.91-.53-1.69-1-2.35-1.47s-1.53-1.11-2.63-2c-.31.28-.68.62-1.1,1s-.87.82-1.34,1.23a28.78,28.78,0,0,0-4.58,4.56q-.66.76-4.41,4.08c-.94.83-2.11,1.85-3.53,3.05s-3,2.62-4.8,4.26-4.08,3.63-6.61,5.9-5.17,4.6-7.91,7a68.77,68.77,0,0,0-14.28-11.11,105.7,105.7,0,0,1-15.29-12.14,66.76,66.76,0,0,1-5.84-6.11,13.57,13.57,0,0,1-2.75-4.34,10.72,10.72,0,0,1,.07-5.67l9.11-15.77a10,10,0,0,1,.31-1.54Zm110.78-22q-.37-.34-9.18-5.08-10-5.43-13.53-8.84-12.2-12-13.82-18a11.09,11.09,0,0,1-.22-5.16c.41-2,1.39-3.27,2.92-3.68a18.81,18.81,0,0,1,5.84-.4c.71-.58,1.09-1,1.13-1.18a12,12,0,0,0-.89-2.8q-4.37-1.14-13.82-4-12.44-4.2-14.06-3.77-3.65,1-1.11,10.45a156.15,156.15,0,0,0,5.69,15.28q.87,3.26,11.22,27.29-3.89,1.18-13.43-9c-.53-.54-1.15-1.24-1.87-2.11l-8.86-9.8q-2.32-2.71-5.23-6a37.1,37.1,0,0,0-6.26-5q-2.94,6.87-5.45,7.26l-5.4-8.27q-3.21-4.93-7-6.23a7.52,7.52,0,0,1-2.27-1.42q-3,3.54-16.72,23.61-10.41,15.25-17.73,22,10.67.33,16.22-1.16a31.51,31.51,0,0,0,8.77-3.51l3.09-2q3.1-.84,7.47,6.25a35,35,0,0,1,4,7.92l.94,3.51q3.48,13,2.44,14-2.72-2-5-7.8-1.77-4.44-3.53-4a20.72,20.72,0,0,0-8.13,4.79l-3.75,3.32c-1.5,1.27-2,2.43-1.54,3.46a21.25,21.25,0,0,0,7,8.13l7.81,5.88a204.76,204.76,0,0,1,17.22,12.35q7.77-6.72,18-15,12.39-10,11.24-14.31-8.28-13.57-11.12-12.82-.67.18-3.07,5.31c-1.7,3.75-2.87,5.89-3.49,6.45l-2.58-26.41A6.51,6.51,0,0,1,246,397q12,13.46,33,34.93,2.38,2.42,10.94,8.38,9.24,6.36,11.14,5.85,3-.8,8.24-20.61T313.37,401.27Z" transform="translate(-73.21 -304.44)"/><path d="M406.46,308.35A42.67,42.67,0,0,1,405,318.82a96.3,96.3,0,0,1-4.32,12.82c-.86,1.87-1.81,3.8-2.88,5.77a42.45,42.45,0,0,1-3.52,5.51L390,350.29q6.67,4.89,8.09,10.16a3,3,0,0,1-.24,2.38,3.51,3.51,0,0,1-.83.66l-3.67,6.34q1.45,1.65,3.17,3.43l3.92,4.09.62.71c.84.93,1.69,1.86,2.57,2.79s1.84,1.92,2.9,3q15.76,16.65,17.14,21.79,1.85,6.89-2,9.94l-8.58,15.06a7.35,7.35,0,0,1-4.76,3.3A64.21,64.21,0,0,1,398.21,435q-7.84.43-21.4.73t-21.1.22c-4.95-.08-8-.34-9.2-.8a31.94,31.94,0,0,1-3.74-1.53c-1.66-.76-3.59-1.67-5.81-2.72l-.86-.78a7.57,7.57,0,0,1-.93-1.06c-.39-.38-.94-.88-1.64-1.52l-2.4-2.18a5.86,5.86,0,0,1,.37-4.59L340.6,405a5.69,5.69,0,0,1,2.73-3.33,2.5,2.5,0,0,1,.78-.36,3.94,3.94,0,0,0,.91-.39,20,20,0,0,0-5.18-5.27l-3.25.86q-4.74,1.27-12.46,8.13c-1,.85-1.92,1.6-2.66,2.23a13.38,13.38,0,0,1-2.14,1.52l-1.68,2.91-3.51.94a14.8,14.8,0,0,1-2.8-4.47,28.94,28.94,0,0,1-.64-2.94,8,8,0,0,1-.06-2.38c.21-1,.58-2.45,1.1-4.28s1.24-4.12,2.14-6.88a48.77,48.77,0,0,1,3.75-7.67l5.44-9.43a36.42,36.42,0,0,0-7.47-4.88,41.24,41.24,0,0,0-9-3.16,35.55,35.55,0,0,0-7.2-.61,62,62,0,0,0-9.4.86l-.11-.41a2.13,2.13,0,0,0-.49-.74,4.21,4.21,0,0,1-.52-.87,5.38,5.38,0,0,1-.39-.91,7.54,7.54,0,0,1,1.12-6.1L298,342.91q1.46-6.48,14.35-14.57,10.23-6.22,15.36-7.6c1.56.07,3.16.17,4.8.31a33.77,33.77,0,0,1,4.46.69,60,60,0,0,0,15.45.35,116.2,116.2,0,0,0,20.45-3.74q4.88-1.31,13.41-6.78t14.34-7c1.63-.43,3.43.53,5.42,2.9Zm-7.19,5.11Q381.39,324,368.4,327.53l-6.76,1.81q-6.76,1.82-20.76.42t-11.83-2q-10.41,2.81-21.61,13.48,8.19-1.33,18.13,3.84,5.21,2.65,15.63,10.73,1.11.87,4.14,5.71.53.87-3.79,2.61c-5,2-7.54,3.08-7.69,3.22q-1.92,1.53-4.21,8.08a25.86,25.86,0,0,0-1.8,8.46,75.32,75.32,0,0,1,7.19-5.12q8.38-5.43,11-6.12,6.36-1.71,12.86,7.42a45,45,0,0,1,7,14.66q2.32,8.65-5.93,10.86a10.37,10.37,0,0,1-3.55,0,10.58,10.58,0,0,0-3.54,0c-1.45.39-2.09.85-1.95,1.39s1.46,1.49,3.95,2.85q8.4,2.69,49.25,2.61a30,30,0,0,0,7.83-1.09q5.28-1.41,5.16-4-10.1-15-42.06-43.95c.25-.84,1.31-1.41,3.16-1.72.92-.15,2.21-.39,3.86-.74q3.83-.3,7.9-.81a1,1,0,0,0,.28-1.09c.08.27-1.07-1.12-3.43-4.16a9.68,9.68,0,0,0-7.08-1.29q-3.8.74-11.41,2.05c-1.22.13-1.56.12-1,0q-2.16.58-11-5.76L350,345.36a7.61,7.61,0,0,1-2.07-2.34c.34-.86.94-2.23,1.79-4.1l12.82-1.41q10-1.08,11.3,1.61c-1.09,2.42-1.46,4.31-1.09,5.66l.5,1.89a8.59,8.59,0,0,0,5.38.59,19.41,19.41,0,0,0,2.43-.94,17.93,17.93,0,0,1,2.43-.94q.81-.22,4-3.25a34.5,34.5,0,0,0,3.91-4.09q2.08-3,5.3-12.14Q399.87,316.21,399.27,313.46Z" transform="translate(-73.21 -304.44)"/></g></g></svg>